<svg xmlns="http://www.w3.org/2000/svg" width="54" height="40" viewBox="0 0 54 40">
  <metadata><?xpacket begin="﻿" id="W5M0MpCehiHzreSzNTczkc9d"?>
<x:xmpmeta xmlns:x="adobe:ns:meta/" x:xmptk="Adobe XMP Core 5.6-c138 79.159824, 2016/09/14-01:09:01        ">
   <rdf:RDF xmlns:rdf="http://www.w3.org/1999/02/22-rdf-syntax-ns#">
      <rdf:Description rdf:about=""/>
   </rdf:RDF>
</x:xmpmeta>
                                                                                                    
                                                                                                    
                                                                                                    
                                                                                                    
                                                                                                    
                                                                                                    
                                                                                                    
                                                                                                    
                                                                                                    
                                                                                                    
                                                                                                    
                                                                                                    
                                                                                                    
                                                                                                    
                                                                                                    
                                                                                                    
                                                                                                    
                                                                                                    
                                                                                                    
                                                                                                    
                           
<?xpacket end="w"?></metadata>
<defs>
    <style>
      .cls-1 {
        fill: #7b133c;
        fill-rule: evenodd;
      }
    </style>
  </defs>
  <path id="Forma_1" data-name="Forma 1" class="cls-1" d="M51.649,22.315a10.631,10.631,0,0,0-6-3.85A7.005,7.005,0,0,0,46.8,14.544,7.047,7.047,0,0,0,44.689,9.4a7.107,7.107,0,0,0-9.759-.369,14.22,14.22,0,0,0-5.3-6.564A13.988,13.988,0,0,0,21.6-.005,13.8,13.8,0,0,0,11.419,4.258,14.088,14.088,0,0,0,7.2,14.544q0,0.369.056,1.222A12.354,12.354,0,0,0,1.97,20.454,12.553,12.553,0,0,0,0,27.275a12.325,12.325,0,0,0,3.7,8.993A12.071,12.071,0,0,0,12.6,40H43.2a10.353,10.353,0,0,0,7.635-3.2A10.971,10.971,0,0,0,51.649,22.315ZM35.718,23.409l-9.871,9.974a0.946,0.946,0,0,1-1.294,0l-9.9-10a0.891,0.891,0,0,1-.253-0.654,0.877,0.877,0,0,1,.267-0.639,0.862,0.862,0,0,1,.633-0.27h6.3v-10a0.88,0.88,0,0,1,.267-0.64,0.862,0.862,0,0,1,.633-0.27h5.4a0.861,0.861,0,0,1,.633.27,0.88,0.88,0,0,1,.267.64v10h6.3a0.871,0.871,0,0,1,.646.256,0.889,0.889,0,0,1,.253.653A1.071,1.071,0,0,1,35.718,23.409Z"/>
</svg>
